<svg width="52" height="76" viewBox="0 0 52 76" fill="none" xmlns="http://www.w3.org/2000/svg">
<g clip-path="url(#clip0_47_336)">
<path d="M13.0026 76C20.1772 76 26 70.3253 26 63.3333V50.6666H13.0026C5.82802 50.6666 0.00518799 56.3413 0.00518799 63.3333C0.00518799 70.3253 5.82802 76 13.0026 76Z" fill="#0ACF83"/>
<path d="M0.00518799 38C0.00518799 31.008 5.82802 25.3334 13.0026 25.3334H26V50.6667H13.0026C5.82802 50.6667 0.00518799 44.992 0.00518799 38Z" fill="#A259FF"/>
<path d="M0.00518799 12.6667C0.00518799 5.67467 5.82802 0 13.0026 0H26V25.3333H13.0026C5.82802 25.3333 0.00518799 19.6587 0.00518799 12.6667Z" fill="#F24E1E"/>
<path d="M26 0H38.9974C46.172 0 51.9948 5.67467 51.9948 12.6667C51.9948 19.6587 46.172 25.3333 38.9974 25.3333H26V0Z" fill="#FF7262"/>
<path d="M51.9948 38C51.9948 44.992 46.172 50.6667 38.9974 50.6667C31.8228 50.6667 26 44.992 26 38C26 31.008 31.8228 25.3334 38.9974 25.3334C46.172 25.3334 51.9948 31.008 51.9948 38Z" fill="#1ABCFE"/>
</g>
<defs>
<clipPath id="clip0_47_336">
<rect width="52" height="76" fill="white"/>
</clipPath>
</defs>
</svg>
