<svg width="25" height="36" viewBox="0 0 25 36" fill="none" xmlns="http://www.w3.org/2000/svg">
<g clip-path="url(#clip0_252_102)">
<path d="M6.51339 35.6647C9.88193 35.6647 12.6158 33.0354 12.6158 29.7958V23.9269H6.51339C3.14484 23.9269 0.41095 26.5561 0.41095 29.7958C0.41095 33.0354 3.14484 35.6647 6.51339 35.6647Z" fill="#1A759F"/>
<path d="M0.41095 18.058C0.41095 14.8184 3.14484 12.1891 6.51339 12.1891H12.6158V23.9269H6.51339C3.14484 23.9269 0.41095 21.2976 0.41095 18.058Z" fill="#1A759F"/>
<path d="M0.411133 6.3202C0.411133 3.08056 3.14503 0.451294 6.51357 0.451294H12.616V12.1891H6.51357C3.14503 12.1891 0.411133 9.55983 0.411133 6.3202Z" fill="#1A759F"/>
<path d="M12.6158 0.451294H18.7183C22.0868 0.451294 24.8207 3.08056 24.8207 6.3202C24.8207 9.55983 22.0868 12.1891 18.7183 12.1891H12.6158V0.451294Z" fill="#C1FFFF"/>
<path d="M24.8207 18.058C24.8207 21.2976 22.0868 23.9269 18.7183 23.9269C15.3497 23.9269 12.6158 21.2976 12.6158 18.058C12.6158 14.8184 15.3497 12.1891 18.7183 12.1891C22.0868 12.1891 24.8207 14.8184 24.8207 18.058Z" fill="#49A0C8"/>
</g>
<defs>
<clipPath id="clip0_252_102">
<rect width="24.4146" height="35.2134" fill="white" transform="translate(0.408508 0.451294)"/>
</clipPath>
</defs>
</svg>
