<svg width="30" height="30" viewBox="0 0 30 30" fill="none" xmlns="http://www.w3.org/2000/svg">
<path d="M14.6658 0.117218C10.7762 0.117218 7.0459 1.66236 4.29552 4.41274C1.54515 7.16312 0 10.8934 0 14.783C0 18.6727 1.54515 22.403 4.29552 25.1534C7.0459 27.9037 10.7762 29.4489 14.6658 29.4489C18.5554 29.4489 22.2858 27.9037 25.0361 25.1534C27.7865 22.403 29.3317 18.6727 29.3317 14.783C29.3317 10.8934 27.7865 7.16312 25.0361 4.41274C22.2858 1.66236 18.5554 0.117218 14.6658 0.117218ZM18.5315 26.7394H18.4178C18.3325 26.7442 18.247 26.7315 18.1667 26.7021C18.0864 26.6726 18.013 26.6271 17.951 26.5683C17.8936 26.5077 17.849 26.4363 17.8196 26.3582C17.7902 26.2801 17.7767 26.197 17.7799 26.1136V24.3953C17.7872 23.8245 17.7921 23.2465 17.7921 22.6647C17.7901 22.2393 17.728 21.8163 17.6075 21.4083C17.4935 20.9959 17.2636 20.6248 16.9451 20.339C17.797 20.2567 18.6344 20.0632 19.4359 19.7633C20.112 19.5062 20.7236 19.1041 21.2276 18.5852C21.725 18.0633 22.0953 17.4327 22.3092 16.7446C22.5693 15.902 22.6931 15.0231 22.6758 14.1414C22.6806 13.5258 22.5729 12.9145 22.3581 12.3375C22.1397 11.756 21.8097 11.2229 21.3864 10.7683C21.4778 10.539 21.5442 10.3005 21.5844 10.057C21.6248 9.81255 21.6455 9.56568 21.6455 9.3188C21.6455 9.00104 21.6089 8.68328 21.5355 8.37408C21.4689 8.05694 21.3786 7.74523 21.2654 7.44158C21.2222 7.42472 21.1762 7.41642 21.1298 7.41713H20.9954C20.7143 7.41958 20.4381 7.46602 20.1716 7.55279C19.8781 7.63846 19.591 7.74464 19.3125 7.87055C19.0354 7.99474 18.7657 8.1347 18.5046 8.28975C18.2418 8.44496 18.0096 8.59407 17.8043 8.73217C15.7483 8.15914 13.5748 8.15914 11.5188 8.73217C11.2895 8.57888 11.0564 8.43136 10.8197 8.28975C10.555 8.13341 10.2807 7.99381 9.99843 7.87177C9.72059 7.74169 9.43238 7.63499 9.13681 7.55279C8.87564 7.46651 8.60278 7.42076 8.32775 7.41713H8.19331C8.14734 7.41648 8.10168 7.42479 8.05887 7.44158C7.94407 7.74565 7.85015 8.05721 7.77778 8.37408C7.71178 8.68451 7.68001 9.00104 7.67878 9.3188C7.67878 9.56568 7.69956 9.81255 7.74111 10.057C7.78144 10.3002 7.84622 10.5385 7.93666 10.7683C7.51451 11.2235 7.18567 11.757 6.96871 12.3387C6.75273 12.9155 6.64381 13.5268 6.64729 14.1426C6.63019 15.0196 6.75061 15.8939 7.00416 16.7336C7.22536 17.4217 7.59445 18.0535 8.08454 18.5864C8.59173 19.1021 9.20281 19.503 9.87621 19.7645C10.6743 20.0701 11.5102 20.2656 12.3608 20.3463C12.1233 20.5615 11.9349 20.8254 11.8084 21.1199C11.6881 21.4112 11.6059 21.7168 11.564 22.0292C11.1156 22.2439 10.6251 22.3566 10.128 22.3592C9.66626 22.3776 9.21057 22.2493 8.82638 21.9925C8.45783 21.7194 8.14572 21.3774 7.90733 20.9855C7.80064 20.8208 7.68132 20.6648 7.55046 20.5186C7.4124 20.3649 7.26018 20.2246 7.09582 20.0994C6.93381 19.9784 6.75622 19.8797 6.56785 19.8061C6.38251 19.7248 6.18236 19.6828 5.97999 19.6827C5.93111 19.6839 5.88222 19.6888 5.83333 19.6949C5.76657 19.6947 5.70005 19.7029 5.63534 19.7193C5.57848 19.7342 5.52469 19.759 5.47646 19.7927C5.45454 19.8047 5.43621 19.8224 5.42333 19.8439C5.41045 19.8653 5.40348 19.8898 5.40314 19.9149C5.40827 19.9737 5.42625 20.0307 5.45582 20.0818C5.48538 20.1329 5.52581 20.1769 5.57424 20.2106C5.6879 20.3011 5.782 20.3707 5.85778 20.4196L5.89444 20.4453C6.05699 20.5712 6.21342 20.7068 6.3613 20.8523C6.49818 20.972 6.62162 21.1077 6.72795 21.2556C6.83794 21.401 6.93327 21.5562 7.01027 21.7212C7.09948 21.885 7.19359 22.0732 7.29258 22.2871C7.52235 22.8664 7.93055 23.3564 8.45852 23.6864C9.01215 23.9834 9.63301 24.1313 10.2624 24.1154C10.4751 24.1154 10.6889 24.1032 10.9004 24.0787C11.1106 24.0445 11.3196 24.0091 11.5298 23.9675V26.0977C11.5336 26.1836 11.5192 26.2693 11.4876 26.3493C11.456 26.4293 11.4079 26.5017 11.3465 26.5618C11.285 26.6219 11.2115 26.6683 11.1308 26.6981C11.0502 26.7278 10.9642 26.7402 10.8784 26.7345H10.8026C7.95259 25.8138 5.52494 23.9058 3.9568 21.3541C2.38866 18.8024 1.78308 15.7746 2.2491 12.8161C2.71513 9.85753 4.22214 7.16256 6.49876 5.21648C8.77538 3.27039 11.672 2.20107 14.6671 2.20107C17.6621 2.20107 20.5587 3.27039 22.8353 5.21648C25.112 7.16256 26.619 9.85753 27.085 12.8161C27.551 15.7746 26.9454 18.8024 25.3773 21.3541C23.8092 23.9058 21.3815 25.8138 18.5315 26.7345V26.7394Z" fill="#000000"/>
</svg>
