<svg width="35" height="36" viewBox="0 0 35 36" fill="none" xmlns="http://www.w3.org/2000/svg">
<path d="M17.5 0.5C7.84558 0.5 0 8.34558 0 18C0 27.6544 7.84558 35.5 17.5 35.5C27.1544 35.5 35 27.6544 35 18C35 8.34558 27.1544 0.5 17.5 0.5ZM17.5 2.02174C26.3317 2.02174 33.4783 9.16833 33.4783 18C33.4783 18.0543 33.4743 18.1078 33.4738 18.162C32.9871 18.1171 32.4248 18.0744 31.7098 18.049C30.6989 18.0132 29.4245 18.0236 27.9798 18.0951C28.0334 17.722 28.0709 17.3437 28.0719 16.9553C28.1456 15.5305 27.6671 14.1975 26.889 13.0202C27.077 12.3706 27.2975 11.5442 27.3527 10.6068C27.4155 9.53831 27.3233 8.35352 26.4655 7.5529L26.2455 7.34783H25.9454C23.9039 7.34783 22.5065 8.20244 21.6521 8.87997C20.4183 8.40241 19.031 8.1087 17.5 8.1087C15.9603 8.1087 14.5596 8.40651 13.2751 8.88294C12.4211 8.20509 11.0226 7.34783 8.97886 7.34783H8.68015L8.46022 7.55142C7.62464 8.32731 7.54766 9.4796 7.59978 10.5429C7.64574 11.4805 7.85349 12.3332 8.03817 13.0142C7.24689 14.2146 6.77204 15.582 6.77204 16.9345C6.77204 17.3238 6.80824 17.7033 6.8612 18.0773C5.48725 18.0136 4.26247 18.0013 3.29017 18.0357C2.57517 18.061 2.01284 18.1033 1.5262 18.1486C1.52574 18.0989 1.52174 18.0498 1.52174 18C1.52174 9.16833 8.66833 2.02174 17.5 2.02174ZM9.43211 8.96913C10.9672 9.1146 12.1222 9.80009 12.6569 10.2754L13.0135 10.5904L13.4534 10.4106C14.6567 9.91516 15.9988 9.63043 17.5 9.63043C19.0012 9.63043 20.3437 9.91658 21.4559 10.4032L21.9017 10.5994L22.2658 10.2754C22.8007 9.79992 23.9576 9.11423 25.4936 8.96913C25.6978 9.30771 25.8753 9.7892 25.8324 10.5176C25.7811 11.3894 25.5479 12.3389 25.3717 12.9028L25.2573 13.2698L25.4847 13.5804C26.2375 14.607 26.6214 15.7181 26.5561 16.8929L26.5546 16.9137V16.9345C26.5546 18.8332 25.8709 20.3529 24.4147 21.4789C22.9585 22.6049 20.6596 23.3261 17.4242 23.3261C14.1888 23.3261 11.8885 22.6049 10.4322 21.4789C8.97601 20.3529 8.29378 18.8332 8.29378 16.9345C8.29378 15.82 8.69621 14.594 9.43954 13.5804L9.66245 13.2773L9.55545 12.9161C9.37914 12.3167 9.16302 11.3455 9.12003 10.4686C9.08428 9.73919 9.25691 9.27817 9.43211 8.96913ZM5.23841 18.7772C5.77611 18.7841 6.39241 18.8131 7.00981 18.8441C7.0688 19.0813 7.13606 19.3147 7.21786 19.5425C4.70139 19.5956 2.81882 19.8487 1.65846 20.0656C1.6094 19.6849 1.57032 19.3011 1.54849 18.9124C2.40603 18.8311 3.61489 18.7565 5.23841 18.7772ZM29.7616 18.7891C31.384 18.7685 32.5924 18.8432 33.45 18.9243C33.4282 19.3074 33.3898 19.6858 33.3415 20.0612C32.1397 19.8407 30.2063 19.5877 27.6246 19.547C27.7047 19.3237 27.7715 19.0943 27.8297 18.8619C28.5108 18.8254 29.1752 18.7966 29.7616 18.7891ZM7.54182 20.2975C7.99586 21.2073 8.64463 22.0197 9.50195 22.6826C10.6741 23.589 12.198 24.2223 14.0583 24.561C13.8149 24.8111 13.5935 25.0857 13.397 25.3754L13.3509 25.3353C13.3551 25.3305 12.9726 25.5219 12.4013 25.573C11.8299 25.6242 11.1251 25.6087 10.5006 25.6087C9.56853 25.6087 9.15799 25.1683 8.50183 24.3663C8.13848 23.8766 7.69551 23.48 7.26541 23.179C6.82502 22.8707 6.44933 22.6531 5.98442 22.5756L5.922 22.5652H5.8581C5.50303 22.5652 5.15944 22.5909 4.83865 22.9575C4.67826 23.1408 4.56771 23.4802 4.63952 23.7675C4.71133 24.0547 4.89304 24.2312 5.05562 24.3396C6.09552 25.0329 6.2793 26.405 6.93105 27.6253C7.53968 28.8381 8.85322 29.413 10.1959 29.413H12.1739V33.0673C6.82333 31.1787 2.78834 26.5252 1.77437 20.8176C2.93919 20.5982 4.88976 20.3344 7.54182 20.2975ZM27.3021 20.3034C30.0129 20.3266 32.0182 20.59 33.2271 20.8131C32.2145 26.5229 28.1781 31.1782 22.8261 33.0673V29.1084C22.8261 27.9027 22.4302 26.5733 21.7413 25.4645C21.5321 25.1279 21.286 24.8096 21.0116 24.5239C22.7732 24.1759 24.2203 23.5535 25.3465 22.6826C26.2019 22.0211 26.8493 21.2112 27.3021 20.3034ZM16.5103 24.9236H18.6413C19.2598 24.9236 19.9199 25.4165 20.4484 26.267C20.9769 27.1176 21.3043 28.2597 21.3043 29.1084V33.5205C20.085 33.8179 18.8116 33.9783 17.5 33.9783C16.1884 33.9783 14.915 33.8179 13.6957 33.5205V29.1084C13.6957 28.2785 14.0516 27.139 14.6155 26.2849C15.1795 25.4307 15.8918 24.9236 16.5103 24.9236ZM7.8435 25.8227C8.50224 26.506 9.29975 27.1304 10.5006 27.1304C11.0934 27.1304 11.8334 27.1518 12.5365 27.0888C12.539 27.0886 12.5414 27.0876 12.5439 27.0873C12.4513 27.3536 12.3822 27.6216 12.324 27.8913H10.1959C9.25754 27.8913 8.59461 27.5523 8.28932 26.9417L8.28337 26.9313L8.27891 26.9224C8.15383 26.69 7.98962 26.2254 7.8435 25.8227Z" fill="#000000"/>
</svg>
