<svg width="72" height="72" viewBox="0 0 72 72" fill="none" xmlns="http://www.w3.org/2000/svg">
<path d="M15.2438 0H18.4781V3.20625H21.4594V0H24.6938V9.70312H21.4594V6.46875H18.5063V9.70312H15.2438M28.9688 3.23438H26.1141V0H35.0719V3.23438H32.2031V9.70312H28.9688M36.4922 0H39.8813L41.9625 3.41719L44.0438 0H47.4328V9.70312H44.1985V4.89375L41.9344 8.38125L39.6703 4.89375V9.70312H36.4922M49.036 0H52.2703V6.49688H56.8547V9.70312H49.036" fill="black"/>
<path d="M15.1312 66.2343L10.4906 14.1469H61.5093L56.8687 66.2062L35.9578 72" fill="#E44D26"/>
<path d="M36 67.5703V18.4219H56.8547L52.875 62.8594" fill="#F16529"/>
<path d="M19.9688 24.7922H36V31.1766H26.9719L27.5625 37.7157H36V44.086H21.7125M21.9937 47.2922H28.4062L28.8562 52.3969L36 54.3094V60.975L22.8938 57.3188" fill="#EBEBEB"/>
<path d="M51.975 24.7922H35.9719V31.1766H51.3844M50.8079 37.7157H35.9719V44.1H43.8469L43.1016 52.3969L35.9719 54.3094V60.9469L49.05 57.3188" fill="white"/>
</svg>
