<svg width="34" height="35" viewBox="0 0 34 35" fill="none" xmlns="http://www.w3.org/2000/svg">
<g clip-path="url(#clip0_252_25)">
<path d="M7.25464 0.39032H8.77322V1.89569H10.173V0.39032H11.6915V4.94606H10.173V3.42748H8.78642V4.94606H7.25464M13.6987 1.9089H12.3584V0.39032H16.5642V1.9089H15.2173V4.94606H13.6987M17.231 0.39032H18.8222L19.7994 1.99473L20.7766 0.39032H22.3678V4.94606H20.8492V2.688L19.7862 4.32542L18.7232 2.688V4.94606H17.231M23.1205 0.39032H24.6391V3.44068H26.7915V4.94606H23.1205" fill="#49A0C8"/>
<path d="M7.20184 31.4882L5.02301 7.03244H28.9769L26.7981 31.475L16.9802 34.1952" fill="#1A759F"/>
<path d="M16.9999 32.1154V9.03961H26.7915L24.923 29.9036" fill="#49A0C8"/>
<path d="M9.47308 12.0305H17V15.0281H12.7611L13.0384 18.0983H17V21.0892H10.2918M10.4238 22.5946H13.4346L13.6459 24.9913L17 25.8892V29.0188L10.8464 27.3022" fill="#A5DBDB"/>
<path d="M24.5004 12.0305H16.9868V15.0281H24.2231M23.9524 18.0983H16.9868V21.0958H20.6842L20.3342 24.9913L16.9868 25.8892V29.0056L23.1271 27.3022" fill="#C1FFFF"/>
</g>
<defs>
<clipPath id="clip0_252_25">
<rect width="33.8049" height="33.8049" fill="white" transform="translate(0.0975342 0.39032)"/>
</clipPath>
</defs>
</svg>
