<svg width="35" height="36" viewBox="0 0 35 36" fill="none" xmlns="http://www.w3.org/2000/svg">
<path d="M10.3409 0.5C4.63948 0.5 0 5.13948 0 10.8409V25.1591C0 30.8605 4.63948 35.5 10.3409 35.5H24.6591C30.3605 35.5 35 30.8605 35 25.1591V10.8409C35 5.13948 30.3605 0.5 24.6591 0.5H10.3409ZM10.3409 2.09091H24.6591C29.5006 2.09091 33.4091 5.99939 33.4091 10.8409V25.1591C33.4091 30.0006 29.5006 33.9091 24.6591 33.9091H10.3409C5.49939 33.9091 1.59091 30.0006 1.59091 25.1591V10.8409C1.59091 5.99939 5.49939 2.09091 10.3409 2.09091ZM27.0455 6.86364C26.6235 6.86364 26.2189 7.03125 25.9205 7.3296C25.6222 7.62796 25.4545 8.03261 25.4545 8.45455C25.4545 8.87648 25.6222 9.28113 25.9205 9.57949C26.2189 9.87784 26.6235 10.0455 27.0455 10.0455C27.4674 10.0455 27.872 9.87784 28.1704 9.57949C28.4688 9.28113 28.6364 8.87648 28.6364 8.45455C28.6364 8.03261 28.4688 7.62796 28.1704 7.3296C27.872 7.03125 27.4674 6.86364 27.0455 6.86364ZM17.5 9.25C12.6769 9.25 8.75 13.1769 8.75 18C8.75 22.8231 12.6769 26.75 17.5 26.75C22.3231 26.75 26.25 22.8231 26.25 18C26.25 13.1769 22.3231 9.25 17.5 9.25ZM17.5 10.8409C21.4633 10.8409 24.6591 14.0367 24.6591 18C24.6591 21.9633 21.4633 25.1591 17.5 25.1591C13.5367 25.1591 10.3409 21.9633 10.3409 18C10.3409 14.0367 13.5367 10.8409 17.5 10.8409Z" fill="#000000"/>
</svg>
