<svg width="31" height="30" viewBox="0 0 31 30" fill="none" xmlns="http://www.w3.org/2000/svg">
<path fill-rule="evenodd" clip-rule="evenodd" d="M5.90141 0.775365C4.90741 1.15403 4.0668 1.65892 3.2262 2.48237C2.38559 3.29981 1.87018 4.12927 1.48363 5.09698C1.10934 6.03463 0.857775 7.11052 0.784145 8.6853C0.710516 10.2601 0.692108 10.765 0.692108 14.78C0.692108 18.7951 0.710516 19.3 0.784145 20.8748C0.857775 22.4495 1.11548 23.5254 1.48363 24.4631C1.87018 25.4368 2.38559 26.2602 3.2262 27.0837C4.0668 27.9071 4.90741 28.412 5.90141 28.7907C6.85859 29.1573 7.9569 29.4038 9.56448 29.4759C11.1721 29.548 11.6875 29.5661 15.7862 29.5661C19.8849 29.5661 20.4003 29.548 22.0079 29.4759C23.6155 29.4038 24.7138 29.1513 25.671 28.7907C26.665 28.412 27.5056 27.9071 28.3462 27.0837C29.1868 26.2602 29.7022 25.4368 30.0888 24.4631C30.463 23.5254 30.7146 22.4495 30.7882 20.8748C30.8619 19.3 30.8803 18.7951 30.8803 14.78C30.8803 10.765 30.8619 10.2601 30.7882 8.6853C30.7146 7.11052 30.4569 6.03463 30.0888 5.09698C29.7022 4.12927 29.1868 3.29981 28.3523 2.48237C27.5117 1.65892 26.6711 1.15403 25.6771 0.775365C24.7199 0.40872 23.6216 0.162286 22.014 0.0901588C20.4065 0.0180317 19.891 0 15.7923 0C11.6936 0 11.1782 0.0180317 9.57062 0.0901588C7.9569 0.156275 6.85859 0.40872 5.90141 0.775365ZM21.8852 2.74684C23.3578 2.81295 24.1554 3.05338 24.6892 3.25774C25.3949 3.52821 25.898 3.84677 26.4257 4.36368C26.9534 4.88059 27.2786 5.37346 27.5547 6.06468C27.7633 6.5876 28.0087 7.36898 28.0762 8.81152C28.1498 10.3683 28.1621 10.8371 28.1621 14.786C28.1621 18.735 28.1437 19.2038 28.0762 20.7606C28.0087 22.2031 27.7633 22.9845 27.5547 23.5074C27.2786 24.1986 26.9534 24.6915 26.4257 25.2084C25.898 25.7253 25.3949 26.0439 24.6892 26.3143C24.1554 26.5187 23.3578 26.7591 21.8852 26.8252C20.296 26.8974 19.8174 26.9094 15.7862 26.9094C11.755 26.9094 11.2764 26.8914 9.6872 26.8252C8.21461 26.7591 7.41695 26.5187 6.88314 26.3143C6.17752 26.0439 5.67438 25.7253 5.1467 25.2084C4.61902 24.6915 4.29383 24.1986 4.01771 23.5074C3.8091 22.9845 3.56367 22.2031 3.49617 20.7606C3.42254 19.2038 3.41027 18.735 3.41027 14.786C3.41027 10.8371 3.42868 10.3683 3.49617 8.81152C3.56367 7.36898 3.8091 6.5876 4.01771 6.06468C4.29383 5.37346 4.61902 4.88059 5.1467 4.36368C5.67438 3.84677 6.17752 3.52821 6.88314 3.25774C7.41695 3.05338 8.21461 2.81295 9.6872 2.74684C11.2764 2.67471 11.755 2.66269 15.7862 2.66269C19.8174 2.66269 20.296 2.67471 21.8852 2.74684ZM8.03667 14.786C8.03667 18.9814 11.5095 22.3774 15.7862 22.3774C20.0628 22.3774 23.5357 18.9754 23.5357 14.786C23.5357 10.5967 20.069 7.19466 15.7862 7.19466C11.5034 7.19466 8.03667 10.5906 8.03667 14.786ZM20.8176 14.786C20.8176 17.5088 18.5657 19.7147 15.7862 19.7147C13.0067 19.7147 10.7548 17.5088 10.7548 14.786C10.7548 12.0632 13.0067 9.85735 15.7862 9.85735C18.5657 9.85735 20.8176 12.0632 20.8176 14.786ZM25.6587 6.89413C25.6587 7.8734 24.8483 8.66726 23.8486 8.66726C22.849 8.66726 22.0386 7.8734 22.0386 6.89413C22.0386 5.91486 22.849 5.12101 23.8486 5.12101C24.8483 5.12101 25.6587 5.91486 25.6587 6.89413Z" fill="#000000"/>
</svg>
