<svg width="30" height="30" viewBox="0 0 30 30" fill="none" xmlns="http://www.w3.org/2000/svg">
<path fill-rule="evenodd" clip-rule="evenodd" d="M26.481 29.529H3.54279C1.73302 29.529 0.265907 28.0619 0.265907 26.2521V3.31396C0.265907 1.50419 1.73302 0.0370789 3.54279 0.0370789H26.481C28.2907 0.0370789 29.7578 1.50419 29.7578 3.31396V26.2521C29.7578 28.0619 28.2907 29.529 26.481 29.529ZM21.2853 25.4329H25.6617V16.4425C25.6617 12.6385 23.5054 10.7993 20.4935 10.7993C17.4802 10.7993 16.2121 13.1458 16.2121 13.1458V11.2331H11.9944V25.4329H16.2121V17.9789C16.2121 15.9816 17.1314 14.7931 18.8912 14.7931C20.5088 14.7931 21.2853 15.9352 21.2853 17.9789V25.4329ZM4.36201 6.75348C4.36201 8.20049 5.52614 9.37376 6.96277 9.37376C8.39939 9.37376 9.56283 8.20049 9.56283 6.75348C9.56283 5.30647 8.39939 4.1332 6.96277 4.1332C5.52614 4.1332 4.36201 5.30647 4.36201 6.75348ZM9.18287 25.4329H4.78495V11.2331H9.18287V25.4329Z" fill="#000000"/>
</svg>
