<svg width="35" height="36" viewBox="0 0 35 36" fill="none" xmlns="http://www.w3.org/2000/svg">
<path d="M4.16667 0.5C1.8754 0.5 0 2.3754 0 4.66667V31.3333C0 33.6246 1.8754 35.5 4.16667 35.5H30.8333C33.1246 35.5 35 33.6246 35 31.3333V4.66667C35 2.3754 33.1246 0.5 30.8333 0.5H4.16667ZM4.16667 2.16667H30.8333C32.2237 2.16667 33.3333 3.27626 33.3333 4.66667V31.3333C33.3333 32.7237 32.2237 33.8333 30.8333 33.8333H4.16667C2.77626 33.8333 1.66667 32.7237 1.66667 31.3333V4.66667C1.66667 3.27626 2.77626 2.16667 4.16667 2.16667ZM8.33333 6.3431C7.42065 6.3431 6.59935 6.6159 5.99121 7.1276C5.38307 7.63931 5.00977 8.40376 5.00977 9.22233C5.00977 10.7783 6.3594 11.9913 8.07617 12.1113L8.07943 12.113C8.16123 12.1408 8.24692 12.1557 8.33333 12.1569C10.2275 12.1569 11.6569 10.8301 11.6569 9.22233C11.6567 9.20767 11.6562 9.19302 11.6553 9.17838C11.5705 7.59486 10.1587 6.3431 8.33333 6.3431ZM8.33333 7.99023C9.49353 7.99023 9.95164 8.50837 10.0016 9.24349C9.9915 9.95703 9.55008 10.5098 8.33333 10.5098C7.17883 10.5098 6.6569 9.91852 6.6569 9.22233C6.6569 8.87424 6.78392 8.61191 7.05078 8.38737C7.31764 8.16282 7.74602 7.99023 8.33333 7.99023ZM5.83333 13C5.61233 13 5.40038 13.0878 5.2441 13.2441C5.08783 13.4004 5.00002 13.6123 5 13.8333V29.6667C5.00002 29.8877 5.08783 30.0996 5.2441 30.2559C5.40038 30.4122 5.61233 30.5 5.83333 30.5H10.8333C11.0543 30.5 11.2663 30.4122 11.4226 30.2559C11.5788 30.0996 11.6666 29.8877 11.6667 29.6667V24.779V13.8333C11.6666 13.6123 11.5788 13.4004 11.4226 13.2441C11.2663 13.0878 11.0543 13 10.8333 13H5.83333ZM13.3333 13C13.1123 13 12.9004 13.0878 12.7441 13.2441C12.5878 13.4004 12.5 13.6123 12.5 13.8333V29.6667C12.5 29.8877 12.5878 30.0996 12.7441 30.2559C12.9004 30.4122 13.1123 30.5 13.3333 30.5H18.3333C18.5543 30.5 18.7663 30.4122 18.9226 30.2559C19.0788 30.0996 19.1666 29.8877 19.1667 29.6667V21.3333C19.1667 20.6419 19.3553 19.9542 19.6875 19.5039C20.0197 19.0536 20.4387 18.7834 21.2354 18.7975C22.0568 18.8117 22.4917 19.0931 22.8206 19.5348C23.1496 19.9766 23.3333 20.6389 23.3333 21.3333V29.6667C23.3334 29.8877 23.4212 30.0996 23.5774 30.2559C23.7337 30.4122 23.9457 30.5 24.1667 30.5H29.1667C29.3877 30.5 29.5996 30.4122 29.7559 30.2559C29.9122 30.0996 30 29.8877 30 29.6667V20.7181C30 18.2502 29.269 16.2953 28.0159 14.9727C26.7629 13.65 25.0201 13 23.1771 13C21.4254 13 20.0924 13.5874 19.1667 14.1865V13.8333C19.1666 13.6123 19.0788 13.4004 18.9226 13.2441C18.7663 13.0878 18.5543 13 18.3333 13H13.3333ZM6.66667 14.6667H10V24.779V28.8333H6.66667V14.6667ZM14.1667 14.6667H17.5V15.9671C17.5001 16.1419 17.555 16.3122 17.6571 16.454C17.7593 16.5957 17.9034 16.7018 18.0691 16.7573C18.2348 16.8127 18.4138 16.8146 18.5806 16.7628C18.7475 16.7109 18.8939 16.608 18.999 16.4684C18.999 16.4684 20.3077 14.6667 23.1771 14.6667C24.6382 14.6667 25.8911 15.1522 26.8066 16.1185C27.7221 17.0848 28.3333 18.5735 28.3333 20.7181V28.8333H25V21.3333C25 20.3611 24.7671 19.3559 24.1585 18.5387C23.55 17.7216 22.5265 17.1526 21.2646 17.1309C19.9963 17.1083 18.9563 17.6892 18.3464 18.5159C17.7364 19.3427 17.5 20.3581 17.5 21.3333V28.8333H14.1667V14.6667Z" fill="#000000"/>
</svg>
