<svg width="35" height="36" viewBox="0 0 35 36" fill="none" xmlns="http://www.w3.org/2000/svg">
<path fill-rule="evenodd" clip-rule="evenodd" d="M5 2.5H30C31.6569 2.5 33 3.84315 33 5.5V30.5C33 32.1569 31.6569 33.5 30 33.5H5C3.34315 33.5 2 32.1569 2 30.5V5.5C2 3.84315 3.34315 2.5 5 2.5ZM0 5.5C0 2.73858 2.23858 0.5 5 0.5H30C32.7614 0.5 35 2.73858 35 5.5V30.5C35 33.2614 32.7614 35.5 30 35.5H5C2.23858 35.5 0 33.2614 0 30.5V5.5ZM28 11.6667H7.00002V11.771L16.3375 18.4406C17.0329 18.9373 17.9671 18.9373 18.6625 18.4406L28 11.771V11.6667ZM7.00002 21.6589V14.2288L11.9798 17.7858L7.00002 21.6589ZM7.00002 24.3334V24.1926L13.6779 18.9987L15.175 20.0681C16.5658 21.0615 18.4342 21.0615 19.8249 20.0681L21.3573 18.9736L28 24.1887V24.3334H7.00002ZM28 14.2288V21.646L23.0531 17.7623L28 14.2288ZM7.00002 9.66671H5.00002V11.6667V24.3334V26.3334H7.00002H28H30V24.3334V11.6667V9.66671H28H7.00002Z" fill="#E2EBF1"/>
</svg>
