<svg width="38" height="30" viewBox="0 0 38 30" fill="none" xmlns="http://www.w3.org/2000/svg">
<path d="M4.53308 29.529C3.51048 29.529 2.63507 29.168 1.90685 28.4461C1.17864 27.7242 0.814529 26.8563 0.814529 25.8425V3.72357C0.814529 2.70979 1.17864 1.84192 1.90685 1.11999C2.63507 0.398048 3.51048 0.0370789 4.53308 0.0370789H34.2815C35.3041 0.0370789 36.1795 0.398048 36.9077 1.11999C37.6359 1.84192 38 2.70979 38 3.72357V25.8425C38 26.8563 37.6359 27.7242 36.9077 28.4461C36.1795 29.168 35.3041 29.529 34.2815 29.529H4.53308ZM19.4073 16.6263L4.53308 7.41006V25.8425H34.2815V7.41006L19.4073 16.6263ZM19.4073 12.9398L34.2815 3.72357H4.53308L19.4073 12.9398ZM4.53308 7.41006V3.72357V25.8425V7.41006Z" fill="#E2EBF1"/>
</svg>
