<svg width="80" height="43" viewBox="0 0 80 43" fill="none" xmlns="http://www.w3.org/2000/svg">
<g clip-path="url(#clip0_47_438)">
<mask id="mask0_47_438" style="mask-type:luminance" maskUnits="userSpaceOnUse" x="1" y="1" width="78" height="41">
<path d="M1.12488 21.5C1.12488 32.7549 18.5302 41.879 40 41.879C61.4697 41.879 78.8752 32.7549 78.8752 21.5C78.8752 10.2452 61.4697 1.12097 40 1.12097C18.5302 1.12097 1.12488 10.2452 1.12488 21.5Z" fill="white"/>
</mask>
<g mask="url(#mask0_47_438)">
<path d="M1.12488 21.5C1.12488 32.7549 18.5302 41.879 40 41.879C61.4697 41.879 78.8752 32.7549 78.8752 21.5C78.8752 10.2452 61.4697 1.12097 40 1.12097C18.5302 1.12097 1.12488 10.2452 1.12488 21.5Z" fill="#49A0C8"/>
</g>
<mask id="mask1_47_438" style="mask-type:luminance" maskUnits="userSpaceOnUse" x="-1" y="-2" width="82" height="47">
<path d="M-0.494934 -1.19956H80.4948V44.1996H-0.494934V-1.19956Z" fill="white"/>
</mask>
<g mask="url(#mask1_47_438)">
<path d="M39.9999 40.366C60.6311 40.366 77.3565 31.9193 77.3565 21.5C77.3565 11.0807 60.6311 2.63395 39.9999 2.63395C19.3688 2.63395 2.64343 11.0807 2.64343 21.5C2.64343 31.9193 19.3688 40.366 39.9999 40.366Z" fill="#1A759F"/>
</g>
<mask id="mask2_47_438" style="mask-type:luminance" maskUnits="userSpaceOnUse" x="-1" y="-2" width="82" height="47">
<path d="M-0.494934 -1.19956H80.4948V44.1996H-0.494934V-1.19956Z" fill="white"/>
</mask>
<g mask="url(#mask2_47_438)">
<path d="M22.2461 23.8391C23.9425 23.8391 25.209 23.5273 26.0103 22.9128C26.803 22.3045 27.3506 21.2506 27.6375 19.7806C27.9051 18.4066 27.8032 17.4472 27.3347 16.9295C26.8556 16.4006 25.8199 16.1324 24.2564 16.1324H21.5453L20.0424 23.8391H22.2461ZM13.379 33.3323C13.2531 33.3323 13.1336 33.2762 13.0536 33.1793C12.9735 33.0824 12.941 32.9549 12.965 32.8318L16.9482 12.409C16.9867 12.2116 17.1603 12.0689 17.3622 12.0689H25.9469C28.6448 12.0689 30.653 12.799 31.9152 14.239C33.1842 15.6866 33.5761 17.7101 33.0799 20.2531C32.878 21.2892 32.5307 22.2514 32.0477 23.1128C31.5641 23.9753 30.9251 24.7733 30.1479 25.4851C29.2177 26.3527 28.1648 26.9819 27.0214 27.3521C25.8961 27.7174 24.451 27.9026 22.7261 27.9026H19.25L18.2573 32.9921C18.2188 33.1896 18.0453 33.3323 17.8434 33.3323H13.379Z" fill="#354153"/>
<path d="M21.8931 16.5527H24.2564C26.1435 16.5527 26.799 16.9654 27.0217 17.2113C27.3912 17.6196 27.461 18.4805 27.2235 19.7008C26.9566 21.067 26.462 22.0357 25.753 22.5796C25.0272 23.1364 23.8472 23.4187 22.2461 23.4187H20.5541L21.8931 16.5527ZM25.9469 11.6485H17.3621C16.9583 11.6485 16.6112 11.9338 16.5341 12.3288L12.551 32.7515C12.5029 32.998 12.5679 33.2529 12.728 33.4467C12.8883 33.6405 13.127 33.7526 13.379 33.7526H17.8433C18.2473 33.7526 18.5944 33.4673 18.6715 33.0723L19.5978 28.3229H22.7262C24.4953 28.3229 25.9846 28.1306 27.1523 27.7516C28.3533 27.3628 29.4582 26.7035 30.4361 25.7922C31.2448 25.0506 31.911 24.2183 32.4158 23.318C32.9207 22.4175 33.2835 21.4132 33.494 20.3332C34.0164 17.6563 33.592 15.5128 32.2329 13.9625C30.887 12.427 28.772 11.6485 25.9469 11.6485ZM19.5306 24.2594H22.2461C24.046 24.2594 25.3867 23.9215 26.2676 23.2457C27.1487 22.5698 27.7429 21.4417 28.0517 19.8608C28.3471 18.3431 28.2125 17.272 27.648 16.648C27.0827 16.0241 25.9524 15.712 24.2564 15.712H21.1976L19.5306 24.2594ZM25.9469 12.4892C28.5294 12.4892 30.4134 13.1646 31.5976 14.5155C32.7817 15.8664 33.1383 17.752 32.6658 20.1729C32.4714 21.1701 32.1425 22.0819 31.6795 22.9079C31.2159 23.7345 30.6106 24.4903 29.8625 25.1756C28.9711 26.007 27.9808 26.5994 26.8911 26.9522C25.8014 27.306 24.4134 27.4822 22.7262 27.4822H18.9022L17.8433 32.9118H13.379L17.3621 12.4892H25.9469Z" fill="white"/>
<path d="M43.3158 27.9026C43.1899 27.9026 43.0705 27.8465 42.9905 27.7496C42.9102 27.6528 42.8777 27.5254 42.9018 27.4021L44.6637 18.3658C44.8313 17.5065 44.79 16.8897 44.5474 16.629C44.3989 16.4697 43.9529 16.2025 42.6342 16.2025H39.4421L37.2269 27.5624C37.1883 27.7599 37.0147 27.9026 36.8128 27.9026H32.3836C32.2577 27.9026 32.1383 27.8465 32.0581 27.7496C31.978 27.6528 31.9455 27.5252 31.9696 27.4021L35.9527 6.97932C35.9912 6.78189 36.1648 6.63925 36.3668 6.63925H40.7959C40.9219 6.63925 41.0412 6.6953 41.1214 6.79212C41.2015 6.88909 41.234 7.01646 41.21 7.13976L40.2488 12.0689H43.6827C46.2987 12.0689 48.0726 12.5285 49.1058 13.4741C50.1589 14.4387 50.4875 15.981 50.0826 18.0587L48.2294 27.5624C48.1908 27.7599 48.0173 27.9026 47.8153 27.9026H43.3158Z" fill="#354153"/>
<path d="M40.796 6.21881H36.3669C35.9629 6.21881 35.6157 6.5041 35.5387 6.8991L31.5556 27.3219C31.5075 27.5683 31.5724 27.8232 31.7327 28.017C31.893 28.2108 32.1318 28.3229 32.3837 28.3229H36.8129C37.2167 28.3229 37.564 28.0376 37.641 27.6426L39.7899 16.6228H42.6343C43.9508 16.6228 44.2271 16.903 44.2382 16.9151C44.318 17.0007 44.4231 17.3972 44.2497 18.2856L42.4878 27.3219C42.4397 27.5683 42.5046 27.8232 42.6649 28.017C42.8252 28.2108 43.064 28.3229 43.3159 28.3229H47.8154C48.2192 28.3229 48.5665 28.0376 48.6435 27.6426L50.4966 18.1389C50.9315 15.908 50.5595 14.2346 49.3913 13.1646C48.2766 12.1444 46.4093 11.6485 43.6828 11.6485H40.7604L41.6242 7.21998C41.6721 6.97351 41.6073 6.71849 41.447 6.52484C41.2867 6.33105 41.0479 6.21881 40.796 6.21881ZM40.796 7.05954L39.7371 12.4892H43.6828C46.1655 12.4892 47.8779 12.9211 48.8204 13.7837C49.7629 14.6468 50.0453 16.0453 49.6686 17.9786L47.8154 27.4822H43.3159L45.0779 18.446C45.2784 17.4181 45.2047 16.7169 44.8566 16.3431C44.5083 15.9693 43.7674 15.7821 42.6343 15.7821H39.0943L36.8129 27.4822H32.3837L36.3669 7.05954H40.796Z" fill="white"/>
<path d="M57.0907 23.8391C58.7871 23.8391 60.0536 23.5273 60.8549 22.9128C61.6476 22.3046 62.1951 21.2508 62.4823 19.7806C62.7498 18.4066 62.6479 17.4472 62.1793 16.9295C61.7002 16.4006 60.6645 16.1324 59.1009 16.1324H56.3899L54.8869 23.8391H57.0907ZM48.2237 33.3323C48.0979 33.3323 47.9784 33.2762 47.8983 33.1793C47.8182 33.0824 47.7856 32.9549 47.8096 32.8318L51.7927 12.409C51.8314 12.2116 52.0049 12.0689 52.207 12.0689H60.7915C63.4896 12.0689 65.4976 12.799 66.76 14.239C68.0289 15.6864 68.4207 17.7099 67.9246 20.2531C67.7224 21.2892 67.3752 22.2514 66.8923 23.1128C66.4087 23.9753 65.7697 24.7733 64.9925 25.4851C64.0623 26.3527 63.0094 26.9819 61.866 27.3521C60.7407 27.7174 59.2955 27.9026 57.5707 27.9026H54.0945L53.1022 32.9921C53.0635 33.1896 52.89 33.3323 52.688 33.3323H48.2237Z" fill="#354153"/>
<path d="M56.7377 16.5527H59.101C60.9881 16.5527 61.6436 16.9654 61.8664 17.2113C62.236 17.6196 62.3058 18.4805 62.0681 19.7007C61.8013 21.067 61.3065 22.0357 60.5977 22.5796C59.8718 23.1364 58.6919 23.4187 57.0908 23.4187H55.3988L56.7377 16.5527ZM60.7916 11.6485H52.2069C51.8031 11.6485 51.4559 11.9338 51.3789 12.3288L47.3958 32.7515C47.3477 32.998 47.4126 33.2529 47.5728 33.4467C47.7331 33.6405 47.9718 33.7526 48.2238 33.7526H52.6881C53.0919 33.7526 53.4392 33.4673 53.5163 33.0723L54.4424 28.3229H57.5708C59.3399 28.3229 60.8292 28.1306 61.997 27.7516C63.1979 27.3628 64.3031 26.7034 65.281 25.7919C66.0898 25.0505 66.7557 24.2183 67.2605 23.318C67.7654 22.4175 68.1282 21.4132 68.3386 20.3332C68.861 17.6562 68.4366 15.5126 67.0775 13.9623C65.7316 12.427 63.6168 11.6485 60.7916 11.6485ZM54.3754 24.2594H57.0908C58.8907 24.2594 60.2314 23.9215 61.1123 23.2457C61.9935 22.5698 62.5875 21.4417 62.8963 19.8608C63.1919 18.3431 63.0573 17.272 62.4926 16.648C61.9274 16.0241 60.797 15.712 59.101 15.712H56.0423L54.3754 24.2594ZM60.7916 12.4892C63.3741 12.4892 65.2581 13.1646 66.4423 14.5155C67.6265 15.8664 67.9829 17.752 67.5105 20.1729C67.316 21.1701 66.9871 22.0819 66.5241 22.9079C66.0605 23.7345 65.4552 24.4903 64.7072 25.1756C63.8157 26.007 62.8254 26.5994 61.7357 26.9522C60.646 27.306 59.2581 27.4822 57.5708 27.4822H53.7469L52.6881 32.9118H48.2238L52.2069 12.4892H60.7916Z" fill="white"/>
</g>
</g>
<defs>
<clipPath id="clip0_47_438">
<rect width="80" height="43" fill="white"/>
</clipPath>
</defs>
</svg>
