<svg width="69" height="70" viewBox="0 0 69 70" fill="none" xmlns="http://www.w3.org/2000/svg">
<path d="M33.9998 0.000566576C31.1621 0.0136932 28.4522 0.254629 26.0677 0.674678C19.0433 1.91011 17.768 4.49599 17.768 9.26478V15.5629H34.3674V17.6623H17.768H11.5384C6.71411 17.6623 2.48985 20.549 1.16856 26.0405C-0.355535 32.3351 -0.423137 36.263 1.16856 42.8355C2.34851 47.7278 5.16638 51.2137 9.99063 51.2137H15.6979V43.6637C15.6979 38.2092 20.4384 33.398 26.0677 33.3979H42.6478C47.2631 33.3979 50.9475 29.6148 50.9475 25.0005V9.26478C50.9475 4.78631 47.1524 1.42211 42.6478 0.674678C39.7962 0.202122 36.8375 -0.0125602 33.9998 0.000566576ZM25.023 5.06603C26.7376 5.06603 28.1378 6.48275 28.1378 8.22472C28.1378 9.96051 26.7376 11.3642 25.023 11.3642C23.3022 11.3642 21.9082 9.96051 21.9082 8.22472C21.9082 6.48275 23.3022 5.06603 25.023 5.06603Z" fill="#1A759F"/>
<path d="M53.0176 17.6622V25.0004C53.0176 30.6896 48.1726 35.478 42.6478 35.478H26.0677C21.5262 35.478 17.768 39.3476 17.768 43.8755V59.6112C17.768 64.0897 21.6798 66.7238 26.0677 68.0087C31.3222 69.5468 36.3609 69.8248 42.6478 68.0087C46.8268 66.8041 50.9475 64.38 50.9475 59.6112V53.3131H34.3674V51.2137H50.9475H59.2472C64.0715 51.2137 65.8692 47.8637 67.5469 42.8355C69.28 37.659 69.2062 32.6809 67.5469 26.0405C66.3547 21.2593 64.0776 17.6622 59.2472 17.6622H53.0176ZM43.6925 57.5118C45.4133 57.5118 46.8073 58.9155 46.8073 60.6513C46.8073 62.3932 45.4133 63.8099 43.6925 63.8099C41.9779 63.8099 40.5777 62.3932 40.5777 60.6513C40.5777 58.9155 41.9779 57.5118 43.6925 57.5118Z" fill="#C1FFFF"/>
</svg>
