<svg width="44" height="44" viewBox="0 0 44 44" fill="none" xmlns="http://www.w3.org/2000/svg">
<g clip-path="url(#clip0_252_3)">
<path d="M3.7652 22.2921C3.7652 29.6258 8.02724 35.9636 14.2075 38.9669L5.36933 14.7519C4.34127 17.0561 3.7652 19.6061 3.7652 22.2921Z" fill="#C1FFFF"/>
<path d="M34.8014 21.3572C34.8014 19.0674 33.9789 17.4817 33.2734 16.2474C32.3342 14.7212 31.4539 13.4288 31.4539 11.9026C31.4539 10.1994 32.7456 8.61404 34.5652 8.61404C34.6473 8.61404 34.7252 8.62426 34.8053 8.62885C31.5089 5.60893 27.1171 3.76511 22.2934 3.76511C15.8205 3.76511 10.1256 7.0861 6.81268 12.1162C7.24738 12.1293 7.65705 12.1385 8.00503 12.1385C9.94303 12.1385 12.9429 11.9033 12.9429 11.9033C13.9417 11.8444 14.0595 13.3114 13.0617 13.4295C13.0617 13.4295 12.058 13.5476 10.9411 13.6061L17.6883 33.6748L21.7431 21.5144L18.8563 13.6054C17.8586 13.5469 16.9134 13.4288 16.9134 13.4288C15.915 13.3703 16.032 11.8437 17.0305 11.9026C17.0305 11.9026 20.0903 12.1377 21.9109 12.1377C23.8485 12.1377 26.8488 11.9026 26.8488 11.9026C27.8483 11.8437 27.9657 13.3107 26.9676 13.4288C26.9676 13.4288 25.9617 13.5469 24.847 13.6054L31.5427 33.5222L33.3908 27.3466C34.1918 24.784 34.8014 22.9433 34.8014 21.3572Z" fill="#C1FFFF"/>
<path d="M22.6185 23.9128L17.0594 40.0662C18.7192 40.5541 20.4746 40.821 22.2934 40.821C24.4511 40.821 26.5202 40.448 28.4462 39.7707C28.3965 39.6914 28.3514 39.6071 28.3144 39.5155L22.6185 23.9128Z" fill="#C1FFFF"/>
<path d="M38.5511 13.403C38.6308 13.9932 38.6759 14.6267 38.6759 15.3082C38.6759 17.1883 38.3248 19.3018 37.2671 21.9445L31.6075 38.3073C37.1159 35.0952 40.8209 29.1277 40.8209 22.2925C40.8212 19.0713 39.9984 16.0422 38.5511 13.403Z" fill="#C1FFFF"/>
<path d="M22.2934 0.695129C10.3844 0.695129 0.695129 10.3835 0.695129 22.2922C0.695129 34.2023 10.3844 43.8903 22.2934 43.8903C34.202 43.8903 43.8927 34.2023 43.8927 22.2922C43.8924 10.3835 34.202 0.695129 22.2934 0.695129ZM22.2934 42.9003C10.9305 42.9003 1.68546 33.6555 1.68546 22.2922C1.68546 10.9296 10.9302 1.68543 22.2934 1.68543C33.6559 1.68543 42.9003 10.9296 42.9003 22.2922C42.9003 33.6555 33.6559 42.9003 22.2934 42.9003Z" fill="#C1FFFF"/>
</g>
<defs>
<clipPath id="clip0_252_3">
<rect width="43.1951" height="43.1951" fill="white" transform="translate(0.695129 0.695129)"/>
</clipPath>
</defs>
</svg>
