<svg width="90" height="92" viewBox="0 0 90 92" fill="none" xmlns="http://www.w3.org/2000/svg">
<g clip-path="url(#clip0_47_242)">
<path d="M6.39667 45.9989C6.39667 61.6187 15.2769 75.1172 28.154 81.514L9.73898 29.9391C7.59696 34.8468 6.39667 40.2779 6.39667 45.9989Z" fill="#1B769C"/>
<path d="M71.0627 44.0076C71.0627 39.1306 69.3489 35.7532 67.8791 33.1243C65.9222 29.8738 64.0879 27.1211 64.0879 23.8705C64.0879 20.243 66.7794 16.8663 70.5705 16.8663C70.7417 16.8663 70.904 16.8881 71.0708 16.8978C64.2025 10.4658 55.0519 6.5387 45.0015 6.5387C31.5147 6.5387 19.6491 13.612 12.7463 24.3255C13.6521 24.3533 14.5056 24.3728 15.2307 24.3728C19.2686 24.3728 25.5191 23.872 25.5191 23.872C27.6002 23.7466 27.8455 26.871 25.7667 27.1226C25.7667 27.1226 23.6753 27.3741 21.3482 27.4987L35.4065 70.2426L43.8548 44.3425L37.8401 27.4972C35.7613 27.3726 33.7919 27.1211 33.7919 27.1211C31.7116 26.9964 31.9554 23.7451 34.0358 23.8705C34.0358 23.8705 40.4111 24.3713 44.2045 24.3713C48.2417 24.3713 54.4929 23.8705 54.4929 23.8705C56.5754 23.7451 56.82 26.8695 54.7405 27.1211C54.7405 27.1211 52.6447 27.3726 50.322 27.4972L64.273 69.9174L68.1237 56.7643C69.7926 51.3061 71.0627 47.3858 71.0627 44.0076Z" fill="#1B769C"/>
<path d="M45.6788 49.4507L34.096 83.8552C37.5544 84.8944 41.2118 85.4629 45.0015 85.4629C49.4971 85.4629 53.8083 84.6684 57.8213 83.226C57.7177 83.057 57.6237 82.8776 57.5465 82.6824L45.6788 49.4507Z" fill="#1B769C"/>
<path d="M78.8756 27.0662C79.0417 28.3231 79.1357 29.6725 79.1357 31.1239C79.1357 35.1284 78.404 39.6299 76.2003 45.2585L64.4082 80.109C75.8852 73.2678 83.6048 60.5576 83.6048 45.9996C83.6056 39.1388 81.8911 32.6872 78.8756 27.0662Z" fill="#1B769C"/>
<path d="M45.0015 0C20.1883 0 0 20.6349 0 45.9989C0 71.3658 20.1883 92 45.0015 92C69.8139 92 90.0051 71.3658 90.0051 45.9989C90.0044 20.6349 69.8139 0 45.0015 0ZM45.0015 89.8915C21.3262 89.8915 2.06342 70.2012 2.06342 45.9989C2.06342 21.798 21.3254 2.10922 45.0015 2.10922C68.6761 2.10922 87.9373 21.798 87.9373 45.9989C87.9373 70.2012 68.6761 89.8915 45.0015 89.8915Z" fill="#1B769C"/>
</g>
<defs>
<clipPath id="clip0_47_242">
<rect width="90" height="92" fill="white"/>
</clipPath>
</defs>
</svg>
